<?xml version="1.0" encoding="UTF-8"?>
<svg version="1.1" xmlns="http://www.w3.org/2000/svg" width="500" height="500">
<path d="M0 0 C7.20732038 5.04755097 11.59355584 11.92141914 15.0078125 19.9375 C16.87502235 31.97063011 15.8168826 42.1557171 8.9453125 52.3125 C5.0959809 57.30394098 1.13322152 60.64197277 -4.4296875 63.5625 C-5.5846875 64.18125 -6.7396875 64.8 -7.9296875 65.4375 C-16.7989007 68.41171406 -28.89409076 67.90889858 -37.29296875 63.81640625 C-47.56241917 57.78990975 -53.70702338 49.72055203 -57.1171875 38.25 C-58.455865 26.7373735 -56.45918005 16.92814127 -49.4296875 7.5625 C-36.73627925 -7.24647629 -16.64784774 -9.8495305 0 0 Z " fill="#FAFAFA" transform="translate(416.4296875,219.4375)"/>
<path d="M0 0 C0.80179688 0.21462891 1.60359375 0.42925781 2.4296875 0.65039062 C30.76710678 8.37297561 55.35776072 21.98015878 76 43 C76.54366211 43.52287598 77.08732422 44.04575195 77.64746094 44.58447266 C87.89413492 54.51816348 95.60071996 66.63094818 102.25 79.1875 C102.71567383 80.05971191 103.18134766 80.93192383 103.66113281 81.83056641 C106.11440538 86.62492485 107.62106276 90.61471882 108 96 C106.68 96 105.36 96 104 96 C103.5875 94.99582031 103.175 93.99164063 102.75 92.95703125 C87.13843486 55.68361735 58.17835316 27.41735604 21 12 C16.07232013 10.07653078 11.08035201 8.47738972 6 7 C5.02289063 6.70480469 4.04578125 6.40960938 3.0390625 6.10546875 C-33.03818306 -3.92697077 -73.48715801 2.43526792 -106.06689453 20.12207031 C-110.21364305 22.52533579 -114.11150054 25.20066255 -118 28 C-119.04929687 28.73476562 -120.09859375 29.46953125 -121.1796875 30.2265625 C-151.80182465 52.61291704 -172.72050262 86.54150339 -179 124 C-185.05363322 163.61147104 -176.34278646 203.74342499 -152.64453125 236.25390625 C-132.29986949 263.50458943 -105.35526518 281.08183288 -73 291 C-71.90171875 291.33773438 -70.8034375 291.67546875 -69.671875 292.0234375 C-32.3658481 302.31827006 7.63231798 294.17315307 41 276 C69.89287154 259.37570959 91.97588746 233.01405958 104 202 C105.65 202 107.3 202 109 202 C97.84691381 238.61579239 68.91773651 267.33166829 35.83984375 285.03515625 C0.46185897 303.40466557 -42.42390383 306.26853362 -80.41186523 294.68286133 C-94.32207699 290.11987483 -108.08595037 283.52894664 -120 275 C-120.95648438 274.32582031 -121.91296875 273.65164063 -122.8984375 272.95703125 C-155.9353794 248.96490764 -178.21664888 212.85250349 -184.8125 172.5 C-190.67455914 132.14410162 -180.66484006 91.32575621 -156.77587891 58.30810547 C-154.3236471 55.07931643 -151.69454739 52.02714806 -149 49 C-148.24847656 48.12859375 -147.49695313 47.2571875 -146.72265625 46.359375 C-112.26686895 7.01498881 -51.19499508 -14.02939769 0 0 Z " fill="#E2E2E2" transform="translate(277,101)"/>
</svg>
