<?xml version="1.0" encoding="UTF-8"?>
<svg version="1.1" xmlns="http://www.w3.org/2000/svg" width="500" height="500">
<path d="M0 0 C7.71274629 5.19098794 13.09153945 13.13036091 15.359375 22.1171875 C17.20941045 33.35073612 15.59875733 42.95297374 9.29296875 52.4375 C3.44215494 60.04463545 -3.88011893 64.59686166 -13.20703125 66.75 C-25.75083086 67.78412481 -34.77485319 66.23327236 -44.91015625 58.7734375 C-52.45558906 52.1262705 -56.58406009 42.62070878 -57.3671875 32.7265625 C-57.79949169 22.01293701 -53.83656827 13.15112652 -46.95703125 5.125 C-33.1319215 -6.81486751 -16.21437633 -9.18336359 0 0 Z " fill="#020202" transform="translate(416.20703125,219.25)"/>
<path d="M0 0 C6.07596156 4.6219101 11.56336532 9.79520144 17.01953125 15.12109375 C17.73109375 15.75917969 18.44265625 16.39726562 19.17578125 17.0546875 C31.94045222 28.79923107 44.85265934 48.50038692 50.01953125 65.12109375 C50.01953125 66.44109375 50.01953125 67.76109375 50.01953125 69.12109375 C48.69953125 69.12109375 47.37953125 69.12109375 46.01953125 69.12109375 C45.63023437 68.15171875 45.2409375 67.18234375 44.83984375 66.18359375 C38.91307481 51.82848581 31.21404959 38.88399953 21.01953125 27.12109375 C20.33503906 26.31542969 19.65054687 25.50976562 18.9453125 24.6796875 C-6.41075333 -4.40922824 -42.48031601 -22.11530912 -80.98046875 -24.87890625 C-120.17429727 -26.60456705 -159.25175746 -15.73740582 -188.73046875 11.18359375 C-189.83648437 12.25287109 -189.83648437 12.25287109 -190.96484375 13.34375 C-192.98046875 15.12109375 -192.98046875 15.12109375 -195.12109375 16.1171875 C-197.50241099 17.4028987 -197.87600681 18.69959561 -198.98046875 21.12109375 C-200.3203125 22.48046875 -200.3203125 22.48046875 -201.91796875 23.87109375 C-226.29475941 47.74214187 -238.37083962 86.0333575 -239.02490234 119.38696289 C-239.34297087 155.79874054 -227.06022783 191.59596033 -202.98046875 219.12109375 C-201.86102787 220.25035985 -200.73130494 221.36955926 -199.58984375 222.4765625 C-196.98046875 225.12109375 -196.98046875 225.12109375 -196.98046875 227.12109375 C-196.07554687 227.52521484 -196.07554687 227.52521484 -195.15234375 227.9375 C-192.95623685 229.13429927 -191.85584754 230.19123441 -190.23046875 232.05859375 C-174.6868994 247.89729416 -152.02154471 258.15517892 -130.98046875 264.12109375 C-129.92859375 264.435625 -128.87671875 264.75015625 -127.79296875 265.07421875 C-91.1301319 275.2362007 -50.75505656 268.09053122 -17.875 249.890625 C-10.39775983 245.60642345 -3.46848036 240.80582774 3.01953125 235.12109375 C3.99664062 234.26515625 4.97375 233.40921875 5.98046875 232.52734375 C24.49468249 216.04945946 36.91309474 196.60714701 47.01953125 174.12109375 C48.33953125 174.78109375 49.65953125 175.44109375 51.01953125 176.12109375 C35.89471744 214.80437331 7.28981879 245.12149494 -30.49707031 262.26269531 C-67.21559858 278.11810816 -110.00987841 278.64926536 -147.35546875 264.43359375 C-159.3262331 259.53966823 -170.5102056 253.4046367 -181.10546875 245.99609375 C-182.13486572 245.27848877 -182.13486572 245.27848877 -183.18505859 244.54638672 C-187.31116898 241.57603254 -190.91830593 238.3574543 -194.43310547 234.68383789 C-196.14928117 232.8944371 -196.14928117 232.8944371 -198.98046875 230.68359375 C-225.42092231 208.09903967 -240.8265067 169.4673595 -243.81274414 135.60668945 C-246.22402987 99.87262827 -237.81629297 64.50866496 -216.98046875 35.12109375 C-216.24957031 34.08597656 -215.51867187 33.05085938 -214.765625 31.984375 C-203.51681363 16.54444234 -190.44340565 5.04700126 -174.98046875 -5.87890625 C-174.03945312 -6.5440625 -173.0984375 -7.20921875 -172.12890625 -7.89453125 C-154.98274913 -19.39437077 -134.16374137 -25.45341798 -113.98046875 -28.87890625 C-113.06499268 -29.05019043 -112.1495166 -29.22147461 -111.20629883 -29.39794922 C-71.9997999 -35.24346522 -31.52440312 -23.2184402 0 0 Z " fill="#181818" transform="translate(334.98046875,127.87890625)"/>
</svg>
